<?xml version="1.0" standalone="no"?><!DOCTYPE svg PUBLIC "-//W3C//DTD SVG 1.1//EN" "http://www.w3.org/Graphics/SVG/1.1/DTD/svg11.dtd"><svg height="1000" node-id="1" sillyvg="true" template-height="1000" template-width="1000" version="1.1" viewBox="0 0 1000 1000" width="1000" xmlns="http://www.w3.org/2000/svg" xmlns:xlink="http://www.w3.org/1999/xlink"><defs node-id="151"><clipPath id="XMLID_2_" node-id="7"><path d="M 781.60 193.60 L 790.80 194.80 L 799.50 196.30 L 807.70 198.40 L 815.40 200.80 L 822.70 203.70 L 829.90 207.10 L 836.70 210.90 L 843.10 215.00 L 849.20 219.50 L 854.90 224.40 L 860.30 229.60 L 865.40 235.20 L 870.10 241.10 L 874.60 247.30 L 878.80 253.90 L 883.50 262.30 L 887.80 271.20 L 891.70 280.50 L 895.10 290.30 L 898.10 300.20 L 900.60 310.40 L 902.80 321.00 L 904.50 331.90 L 906.70 354.00 L 907.30 365.30 L 907.50 376.90 L 907.20 392.20 L 906.30 407.70 L 904.80 423.30 L 902.70 438.90 L 900.10 454.30 L 897.00 469.50 L 893.30 484.70 L 889.30 499.30 L 884.80 513.60 L 879.70 527.70 L 874.40 541.10 L 868.70 553.70 L 859.30 572.00 L 849.50 588.20 L 844.10 595.90 L 838.70 602.90 L 833.20 609.30 L 827.70 615.00 L 824.70 617.50 L 820.70 620.20 L 815.40 622.90 L 808.70 625.70 L 799.90 628.70 L 789.20 631.70 L 776.50 634.60 L 749.40 639.50 L 733.50 641.80 L 700.40 645.60 L 682.10 647.20 L 654.30 649.10 L 624.70 650.60 L 594.60 651.60 L 563.60 652.10 L 532.50 652.00 L 501.30 651.40 L 470.30 650.30 L 440.10 648.70 L 420.10 647.30 L 382.40 643.80 L 364.00 641.60 L 330.60 636.50 L 314.60 633.50 L 300.10 630.30 L 287.10 627.00 L 277.30 624.00 L 268.60 621.10 L 254.20 615.00 L 246.40 615.10 L 240.10 614.80 L 233.30 614.00 L 218.90 611.20 L 205.80 607.10 L 199.10 604.40 L 192.10 601.20 L 184.80 597.20 L 177.80 592.80 L 170.70 587.60 L 163.40 581.50 L 158.20 576.70 L 153.10 571.30 L 148.00 565.40 L 142.90 558.80 L 138.20 552.10 L 133.70 544.70 L 129.20 536.60 L 124.90 527.60 L 121.10 518.70 L 117.40 509.00 L 114.00 498.40 L 110.90 486.80 L 108.20 475.40 L 105.90 463.00 L 104.00 449.50 L 102.40 434.90 L 101.30 420.70 L 100.70 405.30 L 100.50 388.70 L 100.90 370.70 L 105.40 342.30 L 108.30 332.90 L 111.60 323.90 L 115.50 315.20 L 119.80 307.00 L 124.70 299.00 L 129.90 291.40 L 135.60 284.20 L 141.60 277.30 L 148.10 270.90 L 154.80 264.90 L 161.90 259.30 L 169.30 254.10 L 177.00 249.40 L 184.90 245.10 L 193.00 241.30 L 201.40 237.90 L 210.00 235.10 L 218.70 232.80 L 227.50 230.90 L 236.60 229.60 L 245.60 228.80 L 254.80 228.60 L 264.00 228.90 L 273.30 229.80 L 282.50 231.20 L 291.80 233.30 L 301.00 235.90 L 359.50 257.50 L 375.60 263.00 L 383.00 265.20 L 390.70 266.90 L 398.90 268.00 L 407.60 268.80 L 425.10 268.80 L 434.40 268.30 L 444.10 267.30 L 456.90 265.60 L 470.30 263.30 L 484.20 260.40 L 512.30 253.60 L 548.80 243.30 L 638.50 216.20 L 660.50 210.10 L 689.60 202.90 L 703.60 199.90 L 717.70 197.30 L 731.20 195.30 L 744.30 193.80 L 754.20 193.20 L 763.70 192.90 L 772.80 193.10 L 781.60 193.60 Z" fill="#000000" fill-rule="nonzero" node-id="154" stroke="none" target-height="459.19998" target-width="807" target-x="100.5" target-y="192.9"></path></clipPath><clipPath id="XMLID_4_" node-id="124"><path d="M 846.10 443.50 L 695.90 443.50 L 693.30 443.20 L 690.90 442.60 L 688.70 441.50 L 686.70 440.10 L 685.00 438.40 L 683.60 436.40 L 682.50 434.20 L 681.90 431.80 L 681.60 429.20 L 681.60 339.20 L 681.90 336.60 L 682.50 334.20 L 683.60 332.00 L 685.00 330.00 L 686.70 328.30 L 688.70 326.90 L 690.90 325.80 L 693.30 325.20 L 695.90 324.90 L 846.10 324.90 L 848.70 325.20 L 851.00 325.80 L 853.30 326.90 L 855.30 328.30 L 857.00 330.00 L 858.40 332.00 L 859.40 334.20 L 860.10 336.60 L 860.30 339.20 L 860.30 429.20 L 860.10 431.80 L 859.40 434.20 L 858.40 436.40 L 857.00 438.40 L 855.30 440.10 L 853.30 441.50 L 851.00 442.60 L 848.70 443.20 L 846.10 443.50 Z" fill="#000000" fill-rule="nonzero" node-id="158" stroke="none" target-height="118.600006" target-width="178.70001" target-x="681.6" target-y="324.9"></path></clipPath></defs><g node-id="465"><g node-id="472"><path d="M 781.60 193.60 L 790.80 194.80 L 799.50 196.30 L 807.70 198.40 L 815.40 200.80 L 822.70 203.70 L 829.90 207.10 L 836.70 210.90 L 843.10 215.00 L 849.20 219.50 L 854.90 224.40 L 860.30 229.60 L 865.40 235.20 L 870.10 241.10 L 874.60 247.30 L 878.80 253.90 L 883.50 262.30 L 887.80 271.20 L 891.70 280.50 L 895.10 290.30 L 898.10 300.20 L 900.60 310.40 L 902.80 321.00 L 904.50 331.90 L 906.70 354.00 L 907.30 365.30 L 907.50 376.90 L 907.20 392.20 L 906.30 407.70 L 904.80 423.30 L 902.70 438.90 L 900.10 454.30 L 897.00 469.50 L 893.30 484.70 L 889.30 499.30 L 884.80 513.60 L 879.70 527.70 L 874.40 541.10 L 868.70 553.70 L 859.30 572.00 L 849.50 588.20 L 844.10 595.90 L 838.70 602.90 L 833.20 609.30 L 827.70 615.00 L 824.70 617.50 L 820.70 620.20 L 815.40 622.90 L 808.70 625.70 L 799.90 628.70 L 789.20 631.70 L 776.50 634.60 L 749.40 639.50 L 733.50 641.80 L 700.40 645.60 L 682.10 647.20 L 654.30 649.10 L 624.70 650.60 L 594.60 651.60 L 563.60 652.10 L 532.50 652.00 L 501.30 651.40 L 470.30 650.30 L 440.10 648.70 L 420.10 647.30 L 382.40 643.80 L 364.00 641.60 L 330.60 636.50 L 314.60 633.50 L 300.10 630.30 L 287.10 627.00 L 277.30 624.00 L 268.60 621.10 L 254.20 615.00 L 246.40 615.10 L 240.10 614.80 L 233.30 614.00 L 218.90 611.20 L 205.80 607.10 L 199.10 604.40 L 192.10 601.20 L 184.80 597.20 L 177.80 592.80 L 170.70 587.60 L 163.40 581.50 L 158.20 576.70 L 153.10 571.30 L 148.00 565.40 L 142.90 558.80 L 138.20 552.10 L 133.70 544.70 L 129.20 536.60 L 124.90 527.60 L 121.10 518.70 L 117.40 509.00 L 114.00 498.40 L 110.90 486.80 L 108.20 475.40 L 105.90 463.00 L 104.00 449.50 L 102.40 434.90 L 101.30 420.70 L 100.70 405.30 L 100.50 388.70 L 100.90 370.70 L 105.40 342.30 L 108.30 332.90 L 111.60 323.90 L 115.50 315.20 L 119.80 307.00 L 124.70 299.00 L 129.90 291.40 L 135.60 284.20 L 141.60 277.30 L 148.10 270.90 L 154.80 264.90 L 161.90 259.30 L 169.30 254.10 L 177.00 249.40 L 184.90 245.10 L 193.00 241.30 L 201.40 237.90 L 210.00 235.10 L 218.70 232.80 L 227.50 230.90 L 236.60 229.60 L 245.60 228.80 L 254.80 228.60 L 264.00 228.90 L 273.30 229.80 L 282.50 231.20 L 291.80 233.30 L 301.00 235.90 L 359.50 257.50 L 375.60 263.00 L 383.00 265.20 L 390.70 266.90 L 398.90 268.00 L 407.60 268.80 L 425.10 268.80 L 434.40 268.30 L 444.10 267.30 L 456.90 265.60 L 470.30 263.30 L 484.20 260.40 L 512.30 253.60 L 548.80 243.30 L 638.50 216.20 L 660.50 210.10 L 689.60 202.90 L 703.60 199.90 L 717.70 197.30 L 731.20 195.30 L 744.30 193.80 L 754.20 193.20 L 763.70 192.90 L 772.80 193.10 L 781.60 193.60 Z" fill="#ffebe5" fill-rule="nonzero" group-id="1,8" node-id="167" stroke="none" target-height="459.19998" target-width="807" target-x="100.5" target-y="192.9"></path></g><g node-id="473"><g clip-path="url(#XMLID_2_)" group-id="1,9" node-id="170"><path d="M 44.90 525.40 L 42.90 525.00 L 46.00 511.50 L 52.30 489.20 L 60.60 464.70 L 69.70 442.00 L 74.90 430.40 L 87.40 405.20 L 94.50 392.60 L 102.30 379.70 L 110.90 366.50 L 118.90 355.20 L 127.20 344.30 L 135.70 333.90 L 144.50 323.90 L 153.50 314.40 L 162.70 305.30 L 172.40 296.50 L 182.20 288.20 L 192.30 280.30 L 202.70 272.90 L 213.30 265.90 L 224.10 259.40 L 236.00 252.80 L 248.10 246.80 L 260.50 241.30 L 273.30 236.30 L 286.30 231.80 L 299.60 227.80 L 313.30 224.30 L 326.90 221.30 L 340.80 218.90 L 355.00 217.00 L 369.50 215.60 L 384.40 214.70 L 399.60 214.30 L 415.20 214.40 L 415.20 216.40 L 401.10 216.30 L 387.60 216.60 L 374.60 217.20 L 362.10 218.30 L 350.00 219.70 L 334.70 222.00 L 320.10 224.90 L 306.20 228.20 L 292.90 232.00 L 279.60 236.40 L 267.00 241.10 L 254.90 246.20 L 243.50 251.60 L 232.10 257.50 L 221.30 263.70 L 210.90 270.10 L 201.20 276.70 L 182.40 291.00 L 165.60 305.60 L 155.00 316.00 L 145.20 326.20 L 136.20 336.50 L 127.50 347.10 L 119.70 357.50 L 112.60 367.60 L 104.00 380.70 L 96.20 393.60 L 89.20 406.10 L 82.60 419.00 L 76.70 431.20 L 66.70 454.50 L 59.00 475.20 L 54.20 489.70 L 47.90 511.90 L 44.90 525.40 Z" fill="#ffffff" fill-rule="nonzero" group-id="1,9" node-id="172" stroke="none" target-height="311.10004" target-width="372.30002" target-x="42.9" target-y="214.3"></path></g></g><g node-id="474"><g clip-path="url(#XMLID_2_)" group-id="1,10" node-id="175"><path d="M 141.40 691.10 L 137.30 675.80 L 133.40 658.90 L 129.40 637.70 L 127.60 626.10 L 124.90 601.50 L 124.20 588.60 L 124.10 571.00 L 125.30 552.90 L 126.40 544.00 L 127.90 535.20 L 130.00 526.50 L 132.50 518.10 L 135.50 510.10 L 138.10 504.20 L 141.10 498.60 L 144.40 493.30 L 148.10 488.20 L 152.00 483.60 L 156.30 479.30 L 160.80 475.50 L 165.60 472.00 L 170.70 468.90 L 176.10 466.20 L 181.80 463.80 L 188.50 461.60 L 195.70 459.90 L 203.30 458.60 L 211.50 457.90 L 220.20 457.60 L 239.80 458.40 L 249.90 458.30 L 260.00 457.90 L 270.00 457.00 L 279.90 455.60 L 292.30 453.40 L 304.40 450.50 L 316.50 447.10 L 328.30 443.20 L 340.00 438.70 L 351.50 433.80 L 362.70 428.40 L 373.60 422.60 L 384.40 416.40 L 394.80 409.80 L 404.90 403.00 L 414.70 395.80 L 424.30 388.30 L 433.40 380.60 L 442.10 372.80 L 458.50 356.50 L 466.00 348.10 L 479.60 331.40 L 485.40 323.40 L 495.40 307.90 L 503.60 292.60 L 507.10 285.10 L 512.40 270.80 L 514.40 263.50 L 515.90 256.70 L 516.90 250.10 L 517.30 243.90 L 517.30 237.60 L 516.80 231.70 L 515.70 226.20 L 514.20 221.00 L 516.00 220.40 L 517.60 225.60 L 518.70 231.30 L 519.30 237.30 L 519.30 243.70 L 518.90 250.10 L 517.90 256.70 L 516.40 263.70 L 514.30 271.10 L 509.00 285.60 L 505.50 293.20 L 497.20 308.80 L 487.10 324.50 L 481.20 332.60 L 468.20 348.60 L 461.10 356.70 L 445.50 372.40 L 437.30 379.90 L 419.60 394.60 L 410.30 401.60 L 390.90 414.70 L 380.70 420.90 L 370.30 426.70 L 359.70 432.10 L 348.90 437.10 L 337.80 441.70 L 326.60 445.90 L 315.20 449.60 L 303.70 452.80 L 291.90 455.50 L 280.10 457.60 L 268.20 459.10 L 256.20 460.10 L 244.00 460.40 L 220.20 459.60 L 211.70 459.80 L 203.70 460.60 L 196.20 461.80 L 189.20 463.50 L 182.60 465.60 L 176.10 468.40 L 170.00 471.60 L 164.30 475.30 L 159.10 479.50 L 154.20 484.20 L 149.60 489.50 L 146.00 494.40 L 142.80 499.70 L 139.80 505.20 L 137.20 511.00 L 134.30 518.90 L 131.80 527.20 L 129.90 535.80 L 128.40 544.50 L 127.20 553.30 L 126.10 571.20 L 126.20 588.60 L 126.90 601.40 L 129.60 625.80 L 131.30 637.40 L 135.30 658.50 L 139.20 675.30 L 143.30 690.50 L 141.40 691.10 Z" fill="#ffffff" fill-rule="nonzero" group-id="1,10" node-id="177" stroke="none" target-height="470.69998" target-width="395.19998" target-x="124.1" target-y="220.4"></path></g></g><g node-id="475"><g clip-path="url(#XMLID_2_)" group-id="1,11" node-id="180"><path d="M 358.20 779.30 L 351.50 765.50 L 345.20 749.90 L 342.00 740.50 L 338.70 729.70 L 336.00 719.10 L 333.40 706.80 L 331.00 689.30 L 330.20 679.80 L 329.80 670.20 L 329.90 660.30 L 330.50 649.90 L 331.40 642.20 L 334.20 626.50 L 336.20 618.50 L 338.90 609.60 L 342.10 601.00 L 345.70 592.60 L 349.80 584.40 L 354.30 576.40 L 359.40 568.60 L 364.90 560.90 L 370.90 553.40 L 378.10 545.50 L 385.80 537.70 L 394.20 530.20 L 403.30 522.80 L 413.10 515.70 L 423.70 508.70 L 448.80 493.90 L 460.80 486.50 L 471.10 479.50 L 481.10 472.10 L 489.70 465.30 L 497.00 459.00 L 504.00 452.30 L 509.80 446.10 L 514.70 440.40 L 519.30 434.40 L 526.20 423.60 L 529.10 418.20 L 533.40 408.50 L 541.60 384.90 L 543.70 380.00 L 547.90 372.40 L 552.50 366.70 L 555.10 364.00 L 562.00 358.80 L 566.00 356.40 L 576.10 351.60 L 582.30 349.20 L 590.50 346.50 L 600.40 343.80 L 623.50 339.00 L 636.90 336.70 L 668.90 332.10 L 701.50 326.10 L 717.70 322.50 L 748.90 314.50 L 764.20 310.00 L 778.90 305.20 L 793.20 300.10 L 807.30 294.70 L 820.60 289.00 L 833.30 283.20 L 846.10 276.70 L 857.60 270.40 L 867.90 264.10 L 877.10 257.90 L 884.60 252.40 L 891.20 247.00 L 897.00 241.70 L 902.00 236.60 L 906.40 231.60 L 910.60 226.00 L 914.00 220.60 L 916.70 215.30 L 918.60 210.30 L 919.90 205.30 L 920.60 200.90 L 920.70 196.60 L 920.40 192.40 L 919.60 188.20 L 918.30 184.10 L 916.50 180.00 L 914.20 175.90 L 911.20 171.70 L 907.50 167.40 L 903.10 163.10 L 897.90 158.70 L 891.80 154.30 L 884.60 149.90 L 885.70 148.10 L 893.00 152.70 L 899.30 157.30 L 904.60 161.80 L 909.20 166.30 L 913.00 170.70 L 916.00 175.10 L 918.40 179.30 L 920.30 183.60 L 921.60 187.90 L 922.40 192.20 L 922.70 196.60 L 922.60 201.10 L 921.90 205.70 L 920.60 210.80 L 918.60 216.00 L 915.90 221.30 L 912.40 226.90 L 908.20 232.60 L 903.70 237.70 L 898.60 242.90 L 892.70 248.30 L 886.10 253.80 L 878.50 259.40 L 869.20 265.70 L 858.70 272.00 L 847.10 278.50 L 834.20 285.00 L 821.50 290.80 L 808.00 296.50 L 793.90 302.00 L 779.60 307.10 L 764.80 311.90 L 749.40 316.40 L 718.10 324.50 L 701.90 328.00 L 669.20 334.00 L 632.40 339.40 L 616.10 342.40 L 605.70 344.60 L 589.30 348.90 L 581.80 351.40 L 575.50 353.80 L 565.30 359.00 L 561.10 361.70 L 557.60 364.50 L 554.40 367.50 L 549.40 373.70 L 546.50 378.70 L 544.10 384.10 L 535.20 409.30 L 530.90 419.10 L 528.00 424.60 L 521.00 435.50 L 516.40 441.60 L 511.50 447.30 L 505.50 453.60 L 498.50 460.40 L 491.10 466.70 L 482.50 473.60 L 472.30 481.10 L 461.90 488.10 L 449.90 495.60 L 424.80 510.40 L 414.30 517.30 L 404.60 524.40 L 395.60 531.60 L 387.30 539.10 L 379.60 546.80 L 372.50 554.60 L 366.50 562.10 L 361.00 569.60 L 356.10 577.40 L 351.60 585.30 L 347.50 593.40 L 343.90 601.70 L 340.80 610.30 L 338.10 619.00 L 336.00 627.70 L 334.30 636.30 L 333.10 644.80 L 332.30 653.10 L 331.80 664.30 L 331.90 675.20 L 332.60 685.60 L 333.80 696.10 L 335.40 705.90 L 337.20 715.20 L 341.80 732.90 L 348.10 751.70 L 355.00 768.30 L 360.00 778.30 L 358.20 779.30 Z" fill="#ffffff" fill-rule="nonzero" group-id="1,11" node-id="182" stroke="none" target-height="631.19995" target-width="592.9" target-x="329.8" target-y="148.1"></path></g></g><g node-id="476"><g clip-path="url(#XMLID_2_)" group-id="1,12" node-id="185"><path d="M 673.30 246.80 L 668.40 246.60 L 658.80 245.20 L 649.10 242.20 L 640.50 237.90 L 635.20 234.40 L 630.20 230.60 L 625.70 226.40 L 617.50 217.30 L 614.00 212.60 L 609.20 205.30 L 605.30 198.40 L 601.90 191.60 L 597.20 180.40 L 594.80 173.10 L 596.70 172.60 L 599.10 179.80 L 603.70 190.70 L 607.00 197.40 L 610.90 204.20 L 615.50 211.30 L 622.80 220.50 L 626.90 224.90 L 631.40 229.00 L 636.20 232.70 L 641.40 236.10 L 649.80 240.30 L 654.40 242.00 L 659.20 243.30 L 665.30 244.30 L 671.60 244.80 L 678.10 244.70 L 684.80 243.90 L 691.80 242.50 L 699.10 240.30 L 706.70 237.40 L 714.80 233.70 L 723.20 229.10 L 731.20 224.00 L 739.60 218.20 L 748.40 211.40 L 757.70 203.60 L 767.40 194.70 L 777.50 184.70 L 788.20 173.40 L 799.40 160.80 L 800.90 162.10 L 789.70 174.70 L 779.00 186.00 L 768.80 196.00 L 759.10 205.00 L 749.80 212.80 L 741.00 219.60 L 732.50 225.60 L 723.90 231.00 L 715.70 235.40 L 707.80 239.10 L 700.40 242.00 L 693.20 244.10 L 686.30 245.60 L 679.70 246.50 L 673.30 246.80 Z" fill="#ffffff" fill-rule="nonzero" group-id="1,12" node-id="187" stroke="none" target-height="86" target-width="206.10004" target-x="594.8" target-y="160.8"></path></g></g><g node-id="477"><g clip-path="url(#XMLID_2_)" group-id="1,13" node-id="190"><path d="M 471.00 771.00 L 469.00 770.70 L 473.10 746.30 L 478.90 719.20 L 483.00 703.30 L 488.10 684.90 L 496.20 659.30 L 506.90 630.20 L 512.90 615.40 L 519.20 601.00 L 525.80 587.10 L 532.80 573.30 L 540.00 559.90 L 547.50 547.10 L 555.20 534.70 L 563.30 522.40 L 571.60 510.60 L 580.20 499.30 L 588.90 488.60 L 597.90 478.20 L 607.30 468.10 L 616.90 458.60 L 626.70 449.50 L 636.70 440.90 L 646.90 432.70 L 658.50 424.20 L 670.40 416.20 L 682.50 408.80 L 694.80 402.00 L 707.40 395.70 L 720.30 390.00 L 733.50 384.80 L 746.90 380.20 L 760.70 376.10 L 774.80 372.60 L 788.60 369.70 L 802.80 367.40 L 817.20 365.50 L 832.00 364.20 L 847.10 363.50 L 862.60 363.30 L 878.50 363.60 L 894.70 364.60 L 911.40 366.10 L 928.50 368.20 L 928.20 370.20 L 911.20 368.10 L 894.60 366.60 L 878.40 365.60 L 862.70 365.30 L 847.30 365.50 L 832.20 366.20 L 817.50 367.50 L 803.10 369.30 L 789.10 371.70 L 775.30 374.50 L 761.30 378.10 L 747.60 382.10 L 734.20 386.70 L 721.10 391.90 L 708.30 397.50 L 695.80 403.80 L 683.50 410.60 L 671.50 417.90 L 659.70 425.80 L 648.10 434.30 L 638.50 442.00 L 629.30 449.90 L 620.40 458.00 L 611.90 466.30 L 601.00 477.90 L 590.70 489.70 L 581.00 501.70 L 571.80 514.00 L 563.10 526.40 L 555.10 538.80 L 547.40 551.40 L 540.20 563.90 L 527.40 588.60 L 516.40 612.40 L 509.20 629.90 L 503.00 646.00 L 493.80 673.00 L 484.90 703.70 L 480.90 719.60 L 475.00 746.60 L 471.00 771.00 Z" fill="#ffffff" fill-rule="nonzero" group-id="1,13" node-id="192" stroke="none" target-height="407.7" target-width="459.5" target-x="469" target-y="363.3"></path></g></g><g clip-path="url(#XMLID_2_)" group-id="1,14" node-id="195"><path d="M 567.20 716.30 L 567.30 713.40 L 568.00 709.10 L 569.60 703.30 L 572.60 694.50 L 577.20 683.20 L 582.40 671.40 L 596.00 644.40 L 612.40 615.50 L 621.30 601.00 L 631.20 585.80 L 640.70 571.90 L 650.00 559.10 L 659.80 546.70 L 669.00 535.60 L 677.90 525.90 L 684.90 518.70 L 697.80 507.00 L 703.80 502.30 L 710.20 497.80 L 716.20 494.20 L 721.80 491.40 L 726.90 489.30 L 731.50 488.00 L 735.70 487.20 L 739.80 486.80 L 743.60 486.90 L 747.20 487.40 L 750.70 488.40 L 754.10 489.70 L 757.30 491.50 L 760.40 493.80 L 763.50 496.50 L 766.50 499.70 L 774.10 509.80 L 779.00 515.40 L 784.10 520.30 L 789.50 524.60 L 795.30 528.50 L 801.30 531.90 L 807.30 534.90 L 813.60 537.40 L 820.10 539.50 L 826.60 541.20 L 839.80 543.60 L 848.80 544.50 L 857.60 544.90 L 866.30 544.80 L 875.10 544.30 L 891.40 542.50 L 904.10 540.30 L 916.10 537.70 L 927.70 534.70 L 947.50 528.50 L 955.30 525.70 L 971.10 519.30 L 972.00 521.10 L 956.00 527.60 L 938.50 533.50 L 916.60 539.60 L 904.60 542.20 L 891.70 544.50 L 872.90 546.50 L 855.70 546.90 L 847.20 546.50 L 839.10 545.60 L 831.50 544.40 L 824.20 542.90 L 817.00 540.80 L 810.10 538.30 L 803.70 535.50 L 797.60 532.30 L 791.80 528.70 L 786.40 524.70 L 781.20 520.30 L 776.40 515.50 L 771.90 510.40 L 764.40 500.40 L 761.00 496.90 L 757.50 494.10 L 753.80 491.90 L 750.00 490.30 L 746.10 489.30 L 741.90 488.90 L 737.50 489.00 L 732.70 489.80 L 727.60 491.20 L 722.50 493.20 L 717.00 496.00 L 711.10 499.60 L 704.70 504.10 L 692.60 514.10 L 686.00 520.40 L 679.10 527.50 L 670.40 537.10 L 661.20 548.10 L 651.50 560.50 L 642.30 573.10 L 632.80 586.90 L 623.00 602.10 L 613.30 617.80 L 604.60 632.90 L 596.50 647.70 L 589.50 661.30 L 583.20 674.40 L 578.20 685.70 L 574.00 696.30 L 571.30 704.50 L 569.90 709.80 L 569.30 713.60 L 569.20 716.20 L 567.20 716.30 Z" fill="#ffffff" fill-rule="nonzero" group-id="1,14" node-id="197" stroke="none" target-height="229.5" target-width="404.8" target-x="567.2" target-y="486.8"></path></g></g><path d="M 456.50 591.80 L 456.20 596.90 L 455.50 601.70 L 454.30 606.30 L 452.70 610.80 L 450.60 615.00 L 448.20 619.00 L 445.40 622.80 L 442.20 626.20 L 438.80 629.40 L 435.00 632.20 L 431.00 634.60 L 426.80 636.70 L 422.30 638.30 L 417.70 639.50 L 412.90 640.20 L 407.80 640.50 L 402.70 640.20 L 397.90 639.50 L 393.30 638.30 L 388.80 636.70 L 384.60 634.60 L 380.60 632.20 L 376.80 629.40 L 373.40 626.20 L 370.20 622.80 L 367.40 619.00 L 365.00 615.00 L 362.90 610.80 L 361.30 606.30 L 360.10 601.70 L 359.40 596.90 L 359.10 591.80 L 359.40 586.70 L 360.10 581.90 L 361.30 577.30 L 362.90 572.80 L 365.00 568.60 L 367.40 564.60 L 370.20 560.80 L 373.40 557.40 L 376.80 554.20 L 380.60 551.40 L 384.60 549.00 L 388.80 546.90 L 393.30 545.30 L 397.90 544.10 L 402.70 543.40 L 407.80 543.10 L 412.90 543.40 L 417.70 544.10 L 422.30 545.30 L 426.80 546.90 L 431.00 549.00 L 435.00 551.40 L 438.80 554.20 L 442.20 557.40 L 445.40 560.80 L 448.20 564.60 L 450.60 568.60 L 452.70 572.80 L 454.30 577.30 L 455.50 581.90 L 456.20 586.70 L 456.50 591.80 Z" fill="none" node-id="201" stroke="#fa6464" stroke-linecap="butt" stroke-width="2" target-height="97.400024" target-width="97.399994" target-x="359.1" target-y="543.1"></path><path d="M 435.50 591.80 L 435.30 595.50 L 434.60 599.00 L 433.40 602.40 L 431.80 605.60 L 429.80 608.60 L 427.40 611.40 L 424.60 613.80 L 421.70 615.80 L 418.40 617.40 L 415.00 618.60 L 411.50 619.30 L 407.80 619.50 L 404.10 619.30 L 400.60 618.60 L 397.20 617.40 L 393.90 615.80 L 391.00 613.80 L 388.20 611.40 L 385.80 608.60 L 383.80 605.60 L 382.20 602.40 L 381.00 599.00 L 380.30 595.50 L 380.10 591.80 L 380.30 588.10 L 381.00 584.60 L 382.20 581.20 L 383.80 577.90 L 385.80 575.00 L 388.20 572.20 L 391.00 569.80 L 393.90 567.80 L 397.20 566.20 L 400.60 565.00 L 404.10 564.30 L 407.80 564.10 L 411.50 564.30 L 415.00 565.00 L 418.40 566.20 L 421.70 567.80 L 424.60 569.80 L 427.40 572.20 L 429.80 575.00 L 431.80 577.90 L 433.40 581.20 L 434.60 584.60 L 435.30 588.10 L 435.50 591.80 Z" fill="#5a78ec" fill-rule="nonzero" node-id="203" stroke="none" target-height="55.400024" target-width="55.399994" target-x="380.1" target-y="564.1"></path><path d="M 934.90 683.80 L 90.00 683.80 L 177.10 591.00 L 847.80 591.00 Z" fill="#26205c" fill-rule="nonzero" node-id="205" stroke="none" target-height="92.79999" target-width="844.9" target-x="90" target-y="591"></path><path d="M 460.70 459.00 L 153.50 459.00 L 150.60 458.20 L 148.60 456.10 L 147.80 453.20 L 147.80 245.00 L 148.60 242.10 L 150.60 240.00 L 152.00 239.40 L 153.50 239.20 L 460.70 239.20 L 463.60 240.00 L 465.70 242.10 L 466.50 245.00 L 466.50 453.20 L 466.30 454.80 L 464.80 457.30 L 462.30 458.70 L 460.70 459.00 Z" fill="#a1788f" fill-rule="nonzero" node-id="207" stroke="none" target-height="219.8" target-width="318.7" target-x="147.8" target-y="239.2"></path><g node-id="466"><path d="M 468.30 243.30 L 132.50 243.30 L 131.40 242.80 L 130.90 241.60 L 130.90 236.70 L 131.00 236.10 L 131.90 235.20 L 468.30 235.10 L 469.50 235.60 L 470.00 236.70 L 469.80 242.30 L 469.00 243.10 L 468.30 243.30 Z" fill="#231d5a" fill-rule="nonzero" group-id="2" node-id="210" stroke="none" target-height="8.199997" target-width="339.1" target-x="130.9" target-y="235.1"></path><path d="M 454.90 243.30 L 146.50 243.30 L 144.90 243.60 L 143.60 244.50 L 142.70 245.80 L 142.40 247.40 L 142.40 448.40 L 142.70 450.00 L 143.60 451.30 L 144.90 452.20 L 146.50 452.50 L 454.90 452.50 L 456.50 452.20 L 457.80 451.30 L 458.70 450.00 L 459.10 448.40 L 459.10 247.40 L 458.70 245.80 L 457.80 244.50 L 456.50 243.60 L 454.90 243.30 Z" fill="#ffffff" fill-rule="nonzero" group-id="2" node-id="212" stroke="none" target-height="209.2" target-width="316.7" target-x="142.4" target-y="243.3"></path><path d="M 299.10 273.50 L 161.90 273.50 L 160.90 273.10 L 160.60 272.20 L 160.60 264.40 L 161.40 263.20 L 299.10 263.00 L 300.10 263.40 L 300.40 264.40 L 300.40 272.20 L 300.10 273.10 L 299.10 273.50 Z" fill="#5a78ec" fill-rule="nonzero" group-id="2" node-id="214" stroke="none" target-height="10.5" target-width="139.79999" target-x="160.6" target-y="263"></path><path d="M 272.30 372.70 L 161.90 372.70 L 160.90 372.30 L 160.60 371.40 L 160.60 363.60 L 161.40 362.40 L 272.30 362.30 L 273.20 362.70 L 273.60 363.60 L 273.60 371.40 L 273.20 372.30 L 272.30 372.70 Z" fill="#5a78ec" fill-rule="nonzero" group-id="2" node-id="216" stroke="none" target-height="10.400024" target-width="113" target-x="160.6" target-y="362.3"></path><path d="M 405.10 297.40 L 161.90 297.40 L 160.90 297.00 L 160.60 296.10 L 160.60 288.20 L 161.40 287.00 L 405.10 286.90 L 406.00 287.30 L 406.40 288.20 L 406.40 296.10 L 406.00 297.00 L 405.10 297.40 Z" fill="#5a78ec" fill-rule="nonzero" group-id="2" node-id="218" stroke="none" target-height="10.5" target-width="245.79999" target-x="160.6" target-y="286.9"></path><path d="M 178.70 327.00 L 161.60 327.00 L 160.90 326.70 L 160.60 325.90 L 160.60 308.90 L 161.20 307.90 L 178.70 307.80 L 179.50 308.10 L 179.80 308.90 L 179.80 325.90 L 179.50 326.70 L 178.70 327.00 Z" fill="#fa6464" fill-rule="nonzero" group-id="2" node-id="220" stroke="none" target-height="19.200012" target-width="19.199997" target-x="160.6" target-y="307.8"></path><path d="M 178.70 354.30 L 161.60 354.30 L 160.90 353.90 L 160.60 353.20 L 160.60 336.10 L 161.20 335.10 L 178.70 335.00 L 179.50 335.40 L 179.80 336.10 L 179.80 353.20 L 179.50 353.90 L 178.70 354.30 Z" fill="#5a78eb" fill-rule="nonzero" group-id="2" node-id="222" stroke="none" target-height="19.299988" target-width="19.199997" target-x="160.6" target-y="335"></path><path d="M 173.30 411.10 L 161.60 411.10 L 160.90 410.80 L 160.60 410.10 L 160.60 398.40 L 161.20 397.40 L 173.30 397.30 L 174.00 397.60 L 174.40 398.40 L 174.40 410.10 L 174.00 410.80 L 173.30 411.10 Z" fill="#fdd740" fill-rule="nonzero" group-id="2" node-id="224" stroke="none" target-height="13.800018" target-width="13.799988" target-x="160.6" target-y="397.3"></path><path d="M 229.20 428.60 L 157.40 428.60 L 156.90 428.10 L 157.00 427.80 L 228.80 427.60 L 263.10 387.90 L 375.60 387.90 L 376.10 388.40 L 376.00 388.70 L 263.60 388.90 L 229.20 428.60 Z" fill="#232323" fill-rule="nonzero" group-id="2" node-id="226" stroke="none" target-height="40.700012" target-width="219.20001" target-x="156.9" target-y="387.9"></path><path d="M 375.60 397.10 L 266.50 397.10 L 266.00 396.60 L 266.50 396.10 L 375.60 396.10 L 376.10 396.60 L 375.60 397.10 Z" fill="#232323" fill-rule="nonzero" group-id="2" node-id="228" stroke="none" target-height="1" target-width="110.100006" target-x="266" target-y="396.1"></path><path d="M 353.60 404.90 L 266.50 404.90 L 266.00 404.40 L 266.50 403.90 L 353.60 403.90 L 354.10 404.40 L 353.60 404.90 Z" fill="#232323" fill-rule="nonzero" group-id="2" node-id="230" stroke="none" target-height="1" target-width="88.100006" target-x="266" target-y="403.9"></path><path d="M 285.30 414.20 L 266.50 414.20 L 266.00 413.70 L 266.10 413.40 L 285.30 413.20 L 285.80 413.70 L 285.30 414.20 Z" fill="#232323" fill-rule="nonzero" group-id="2" node-id="232" stroke="none" target-height="1" target-width="19.799988" target-x="266" target-y="413.2"></path><path d="M 328.20 414.20 L 290.60 414.20 L 290.10 413.70 L 290.20 413.40 L 328.20 413.20 L 328.70 413.70 L 328.20 414.20 Z" fill="#232323" fill-rule="nonzero" group-id="2" node-id="234" stroke="none" target-height="1" target-width="38.600006" target-x="290.1" target-y="413.2"></path><path d="M 368.50 414.20 L 332.70 414.20 L 332.20 413.70 L 332.70 413.20 L 368.50 413.20 L 369.00 413.70 L 368.50 414.20 Z" fill="#232323" fill-rule="nonzero" group-id="2" node-id="236" stroke="none" target-height="1" target-width="36.799988" target-x="332.2" target-y="413.2"></path><g node-id="479"><path d="M 375.60 339.50 L 375.40 342.50 L 373.90 348.00 L 371.00 353.00 L 369.10 355.20 L 366.90 357.20 L 361.90 360.00 L 356.40 361.50 L 353.40 361.70 L 350.50 361.50 L 344.90 360.00 L 339.90 357.20 L 337.70 355.20 L 335.80 353.00 L 332.90 348.00 L 331.40 342.50 L 331.20 339.50 L 331.40 336.60 L 332.90 331.00 L 335.80 326.00 L 337.70 323.80 L 339.90 321.90 L 344.90 319.00 L 350.50 317.50 L 353.40 317.30 L 356.40 317.50 L 361.90 319.00 L 366.90 321.90 L 369.10 323.80 L 371.00 326.00 L 373.90 331.00 L 375.40 336.60 L 375.60 339.50 Z" fill="#fdd740" fill-rule="nonzero" group-id="2,15" node-id="240" stroke="#232323" stroke-linecap="butt" stroke-width="1" target-height="44.400024" target-width="44.399994" target-x="331.2" target-y="317.3"></path><path d="M 353.40 358.10 L 350.00 357.80 L 346.90 356.90 L 344.00 355.60 L 341.40 353.70 L 339.20 351.50 L 337.40 348.90 L 336.00 346.00 L 335.20 342.90 L 334.80 339.50 L 335.10 336.50 L 335.80 333.70 L 336.90 331.00 L 338.50 328.50 L 340.40 326.30 L 342.70 324.40 L 345.10 322.90 L 347.80 321.80 L 350.50 321.20 L 353.40 320.90 L 353.90 321.40 L 353.80 321.80 L 348.10 322.80 L 345.60 323.80 L 343.30 325.20 L 341.10 327.00 L 339.30 329.10 L 337.80 331.50 L 336.70 334.00 L 336.10 336.70 L 335.80 339.50 L 336.10 342.70 L 336.90 345.70 L 338.20 348.40 L 340.00 350.90 L 342.10 352.90 L 344.60 354.70 L 347.30 356.00 L 350.20 356.80 L 353.40 357.10 L 356.60 356.80 L 359.60 356.00 L 362.40 354.60 L 365.00 352.80 L 365.70 352.80 L 365.60 353.50 L 362.90 355.50 L 359.90 356.90 L 356.70 357.80 L 353.40 358.10 Z" fill="#232323" fill-rule="nonzero" group-id="2,15" node-id="242" stroke="none" target-height="37.200012" target-width="30.900024" target-x="334.8" target-y="320.9"></path><path d="M 345.40 349.30 L 347.30 350.70 L 349.30 351.70 L 351.60 352.30 L 354.00 352.50 L 356.40 352.30 L 358.50 351.70 L 362.40 349.50 L 365.20 346.10 L 366.20 344.10 L 366.80 341.90 L 367.00 339.50 L 366.80 337.30 L 366.30 335.30 L 364.40 331.70 L 361.50 328.90 L 359.20 327.60 L 356.80 326.80 L 354.00 326.50" fill="none" group-id="2,15" node-id="244" stroke="#232323" stroke-linecap="round" stroke-width="2" target-height="26" target-width="21.600006" target-x="345.4" target-y="326.5"></path></g><path d="M 377.70 239.50 L 294.10 186.70 L 210.50 238.00 L 209.40 236.30 L 294.10 184.50 L 378.80 237.80 L 377.70 239.50 Z" fill="#232323" fill-rule="nonzero" group-id="2" node-id="247" stroke="none" target-height="55" target-width="169.4" target-x="209.4" target-y="184.5"></path><path d="M 302.20 185.50 L 302.10 187.10 L 300.90 190.00 L 298.60 192.30 L 295.70 193.50 L 292.50 193.50 L 289.60 192.30 L 287.30 190.00 L 286.10 187.10 L 286.10 183.90 L 287.30 181.00 L 289.60 178.70 L 292.50 177.50 L 295.70 177.50 L 298.60 178.70 L 300.90 181.00 L 302.10 183.90 L 302.20 185.50 Z" fill="#231d5a" fill-rule="nonzero" group-id="2" node-id="249" stroke="none" target-height="16" target-width="16.100006" target-x="286.1" target-y="177.5"></path><path d="M 305.20 307.80 L 228.40 307.80 L 227.90 307.30 L 228.00 307.00 L 305.20 306.80 L 305.70 307.30 L 305.20 307.80 Z" fill="#232323" fill-rule="nonzero" group-id="2" node-id="251" stroke="none" target-height="1" target-width="77.80002" target-x="227.9" target-y="306.8"></path><path d="M 260.90 314.60 L 228.40 314.60 L 227.90 314.10 L 228.40 313.60 L 260.90 313.60 L 261.40 314.10 L 260.90 314.60 Z" fill="#232323" fill-rule="nonzero" group-id="2" node-id="253" stroke="none" target-height="1" target-width="33.5" target-x="227.9" target-y="313.6"></path><path d="M 283.80 314.50 L 269.00 314.50 L 268.50 314.00 L 268.70 313.60 L 283.80 313.50 L 284.30 314.00 L 283.80 314.50 Z" fill="#232323" fill-rule="nonzero" group-id="2" node-id="255" stroke="none" target-height="1" target-width="15.799988" target-x="268.5" target-y="313.5"></path><path d="M 305.20 321.50 L 228.40 321.50 L 227.90 321.00 L 228.00 320.60 L 305.20 320.50 L 305.70 321.00 L 305.20 321.50 Z" fill="#232323" fill-rule="nonzero" group-id="2" node-id="257" stroke="none" target-height="1" target-width="77.80002" target-x="227.9" target-y="320.5"></path><path d="M 280.10 328.30 L 228.40 328.30 L 227.90 327.80 L 228.00 327.40 L 280.10 327.30 L 280.60 327.80 L 280.10 328.30 Z" fill="#232323" fill-rule="nonzero" group-id="2" node-id="259" stroke="none" target-height="1" target-width="52.700012" target-x="227.9" target-y="327.3"></path><path d="M 297.10 328.30 L 285.20 328.30 L 284.70 327.80 L 284.90 327.40 L 297.10 327.30 L 297.60 327.80 L 297.10 328.30 Z" fill="#232323" fill-rule="nonzero" group-id="2" node-id="261" stroke="none" target-height="1" target-width="12.899994" target-x="284.7" target-y="327.3"></path><path d="M 237.30 335.10 L 228.40 335.10 L 227.90 334.60 L 228.00 334.30 L 237.30 334.10 L 237.80 334.60 L 237.30 335.10 Z" fill="#232323" fill-rule="nonzero" group-id="2" node-id="263" stroke="none" target-height="1" target-width="9.900009" target-x="227.9" target-y="334.1"></path><path d="M 261.60 335.10 L 243.90 335.10 L 243.40 334.60 L 243.60 334.30 L 261.60 334.10 L 262.10 334.60 L 261.60 335.10 Z" fill="#232323" fill-rule="nonzero" group-id="2" node-id="265" stroke="none" target-height="1" target-width="18.700012" target-x="243.4" target-y="334.1"></path><path d="M 300.00 335.10 L 266.10 335.10 L 265.60 334.60 L 266.10 334.10 L 300.00 334.10 L 300.50 334.60 L 300.00 335.10 Z" fill="#232323" fill-rule="nonzero" group-id="2" node-id="267" stroke="none" target-height="1" target-width="34.899994" target-x="265.6" target-y="334.1"></path><path d="M 399.70 430.60 L 386.40 430.60 L 385.90 430.40 L 385.70 429.90 L 385.70 398.90 L 385.90 398.30 L 386.40 398.10 L 399.70 398.10 L 400.20 398.30 L 400.40 398.90 L 400.40 429.90 L 400.20 430.40 L 399.70 430.60 Z" fill="#fa6464" fill-rule="nonzero" group-id="2" node-id="269" stroke="none" target-height="32.5" target-width="14.699982" target-x="385.7" target-y="398.1"></path><path d="M 421.80 430.60 L 408.50 430.60 L 408.00 430.40 L 407.80 429.90 L 407.80 348.70 L 408.00 348.10 L 408.50 347.90 L 421.80 347.90 L 422.30 348.10 L 422.60 348.70 L 422.60 429.90 L 422.30 430.40 L 421.80 430.60 Z" fill="#fa6464" fill-rule="nonzero" group-id="2" node-id="271" stroke="none" target-height="82.70001" target-width="14.800018" target-x="407.8" target-y="347.9"></path><path d="M 444.00 430.60 L 430.70 430.60 L 430.20 430.40 L 429.90 429.90 L 429.90 307.30 L 430.20 306.80 L 430.70 306.60 L 444.00 306.60 L 444.50 306.80 L 444.70 307.30 L 444.70 429.90 L 444.50 430.40 L 444.00 430.60 Z" fill="#fa6464" fill-rule="nonzero" group-id="2" node-id="273" stroke="none" target-height="124" target-width="14.800018" target-x="429.9" target-y="306.6"></path></g><g node-id="467"><g node-id="480"><path d="M 552.30 241.90 L 549.20 242.10 L 543.60 243.50 L 541.00 244.80 L 537.80 246.90 L 535.20 249.40 L 533.00 252.30 L 531.70 254.80 L 530.10 260.10 L 530.00 265.10 L 526.60 270.50 L 526.50 271.30 L 527.80 271.90 L 532.00 271.90 L 534.90 276.30 L 538.90 280.00 L 543.80 282.60 L 549.30 284.00 L 552.30 284.20 L 558.30 283.40 L 563.60 281.30 L 566.70 279.20 L 569.40 276.70 L 571.60 273.70 L 572.90 271.30 L 574.40 266.00 L 574.60 263.00 L 574.40 260.10 L 572.90 254.80 L 571.60 252.30 L 569.40 249.40 L 566.70 246.90 L 563.60 244.80 L 561.00 243.50 L 555.40 242.10 L 552.30 241.90 Z" fill="#ffb7b7" fill-rule="nonzero" group-id="3,16" node-id="280" stroke="none" target-height="42.30002" target-width="48.099976" target-x="526.5" target-y="241.9"></path><path d="M 426.40 301.10 L 415.80 289.90 L 414.90 289.30 L 412.90 289.20 L 412.00 289.70 L 411.40 290.60 L 411.30 292.40 L 411.80 293.30 L 421.50 303.50 L 419.80 305.20 L 418.70 306.90 L 417.40 310.70 L 417.60 314.70 L 419.10 318.40 L 420.40 320.10 L 436.60 336.90 L 440.40 338.70 L 444.50 339.30 L 446.60 339.10 L 450.60 337.60 L 452.40 336.30 L 455.00 333.10 L 455.80 331.20 L 456.40 327.30 L 455.60 323.40 L 454.60 321.60 L 438.70 304.50 L 437.00 303.00 L 435.10 301.90 L 433.00 301.20 L 428.60 300.70 L 426.40 301.10 Z" fill="#ffb7b7" fill-rule="nonzero" group-id="3,16" node-id="282" stroke="none" target-height="50.099976" target-width="45.100006" target-x="411.3" target-y="289.2"></path><path d="M 629.00 341.70 L 626.70 334.10 L 622.10 322.10 L 618.40 314.40 L 613.50 306.40 L 611.60 304.30 L 607.20 300.80 L 602.00 298.40 L 596.30 297.10 L 514.80 296.90 L 511.40 297.20 L 508.20 298.10 L 505.20 299.40 L 502.40 301.30 L 500.10 303.50 L 498.20 306.20 L 482.00 333.50 L 478.30 339.20 L 449.30 308.00 L 447.60 307.20 L 445.90 307.80 L 423.00 326.80 L 422.40 327.50 L 422.30 329.20 L 474.40 385.80 L 479.40 390.80 L 481.70 392.30 L 484.20 393.40 L 489.70 394.80 L 492.10 395.00 L 494.20 394.70 L 497.90 393.40 L 500.90 391.50 L 503.80 389.00 L 506.60 407.30 L 609.70 407.30 L 607.80 381.60 L 617.10 380.50 L 623.60 379.30 L 627.50 378.30 L 630.40 377.10 L 632.30 375.80 L 634.40 373.10 L 635.00 371.40 L 635.20 366.60 L 634.80 363.00 L 633.80 358.50 L 629.00 341.70 Z" fill="#5a78ec" fill-rule="nonzero" group-id="3,16" node-id="284" stroke="none" target-height="110.399994" target-width="212.90002" target-x="422.3" target-y="296.9"></path><g node-id="483"><path d="M 496.60 393.90 L 496.00 393.00 L 495.60 386.40 L 496.20 365.80 L 498.20 332.30 L 500.30 303.20 L 503.80 389.00 L 500.10 392.00 L 496.60 393.90 Z" fill="#4c6ac8" fill-rule="nonzero" group-id="3,16,19" node-id="288" stroke="none" target-height="90.69998" target-width="8.199982" target-x="495.6" target-y="303.2"></path><path d="M 550.10 359.30 L 593.20 353.80 L 590.40 326.80 L 597.70 356.40 L 550.10 359.30" fill="#4c6ac8" fill-rule="nonzero" group-id="3,16,19" node-id="290" stroke="none" target-height="32.5" target-width="47.600037" target-x="550.1" target-y="326.8"></path><path d="M 551.00 384.30 L 550.60 386.20 L 608.10 386.20 L 607.80 381.60 L 601.00 382.80 L 551.00 384.30" fill="#4c6ac8" fill-rule="nonzero" group-id="3,16,19" node-id="292" stroke="none" target-height="4.600006" target-width="57.5" target-x="550.6" target-y="381.6"></path></g><path d="M 530.00 403.30 L 508.30 340.00 L 546.80 326.70 L 569.20 390.50 Z" fill="#ffb000" fill-rule="nonzero" group-id="3,16" node-id="295" stroke="none" target-height="76.599976" target-width="60.900024" target-x="508.3" target-y="326.7"></path><path d="M 550.10 363.10 L 533.30 363.10 L 528.20 357.60 L 527.50 357.10 L 525.90 357.00 L 524.60 358.00 L 524.50 359.60 L 527.50 363.10 L 522.40 363.30 L 519.30 364.40 L 517.30 365.90 L 515.70 367.70 L 514.50 370.70 L 514.40 372.40 L 515.00 375.70 L 515.70 377.10 L 517.30 379.00 L 519.30 380.50 L 522.40 381.60 L 550.60 381.70 L 550.10 363.10 Z" fill="#ffb7b7" fill-rule="nonzero" group-id="3,16" node-id="297" stroke="none" target-height="24.700012" target-width="36.19995" target-x="514.4" target-y="357"></path><path d="M 622.40 382.10 L 543.60 383.90 L 542.40 382.80 L 542.10 381.90 L 541.50 359.20 L 542.10 357.70 L 543.60 357.10 L 621.70 355.10 L 626.30 355.80 L 630.30 357.90 L 633.30 361.10 L 634.40 363.00 L 635.00 365.10 L 635.30 367.30 L 635.20 371.50 L 634.70 373.60 L 633.70 375.60 L 630.90 378.90 L 627.10 381.20 L 622.40 382.10 Z" fill="#5a78ec" fill-rule="nonzero" group-id="3,16" node-id="299" stroke="none" target-height="28.799988" target-width="93.79999" target-x="541.5" target-y="355.1"></path><path d="M 503.50 382.70 L 502.80 382.50 L 502.50 381.80 L 499.70 312.20 L 500.00 311.50 L 500.60 311.20 L 501.40 311.50 L 501.70 312.20 L 504.50 381.70 L 504.20 382.40 L 503.50 382.70 Z" fill="#232323" fill-rule="nonzero" group-id="3,16" node-id="301" stroke="none" target-height="71.5" target-width="4.799988" target-x="499.7" target-y="311.2"></path><path d="M 543.80 358.10 L 543.10 357.80 L 542.80 357.10 L 543.10 356.40 L 543.80 356.10 L 596.40 355.40 L 589.10 325.30 L 589.20 324.60 L 589.80 324.10 L 590.60 324.20 L 591.00 324.80 L 599.00 357.40 L 543.80 358.10 Z" fill="#232323" fill-rule="nonzero" group-id="3,16" node-id="303" stroke="none" target-height="34" target-width="56.200012" target-x="542.8" target-y="324.1"></path><path d="M 547.50 385.00 L 546.80 384.70 L 546.50 384.00 L 546.70 383.30 L 547.40 383.00 L 606.50 381.50 L 607.20 381.80 L 607.50 382.50 L 607.20 383.20 L 606.50 383.50 L 547.50 385.00 Z" fill="#232323" fill-rule="nonzero" group-id="3,16" node-id="305" stroke="none" target-height="3.5" target-width="61" target-x="546.5" target-y="381.5"></path></g><path d="M 573.10 270.90 L 565.20 268.30 L 565.80 264.00 L 565.30 260.60 L 564.60 259.10 L 563.30 258.00 L 562.30 257.50 L 558.90 257.50 L 557.10 257.90 L 551.40 260.40 L 551.10 258.50 L 549.90 256.40 L 548.80 255.70 L 546.60 255.50 L 542.00 257.00 L 536.50 260.00 L 534.40 260.10 L 533.20 259.70 L 531.00 256.90 L 528.90 252.80 L 528.20 248.80 L 529.10 245.70 L 530.20 244.30 L 531.80 242.90 L 534.20 241.50 L 542.80 237.50 L 550.30 235.00 L 552.60 234.70 L 557.20 234.90 L 561.90 236.70 L 568.30 241.30 L 571.50 244.40 L 573.40 246.60 L 576.00 251.40 L 576.80 254.10 L 577.10 256.90 L 576.90 260.10 L 576.30 263.30 L 575.00 266.80 L 573.10 270.90 Z" fill="#26205c" fill-rule="nonzero" group-id="3" node-id="308" stroke="none" target-height="36.199997" target-width="48.899963" target-x="528.2" target-y="234.7"></path></g><path d="M 571.90 268.50 L 564.30 265.80 L 564.80 261.40 L 564.40 257.90 L 563.70 256.40 L 562.40 255.30 L 561.40 254.80 L 558.20 254.80 L 556.40 255.30 L 550.90 257.80 L 550.70 255.80 L 549.50 253.70 L 548.40 252.90 L 546.30 252.70 L 541.90 254.30 L 536.50 257.30 L 534.50 257.50 L 533.30 257.00 L 531.20 254.20 L 529.10 250.00 L 528.50 245.90 L 529.40 242.70 L 530.40 241.30 L 531.90 239.90 L 534.20 238.50 L 542.60 234.40 L 546.40 232.80 L 549.80 231.80 L 552.10 231.50 L 556.60 231.80 L 561.10 233.60 L 567.30 238.30 L 570.40 241.40 L 572.20 243.70 L 574.70 248.60 L 575.50 251.30 L 575.80 254.20 L 575.60 257.50 L 575.00 260.70 L 573.80 264.40 L 571.90 268.50 Z" fill="#26205c" fill-rule="nonzero" node-id="311" stroke="none" target-height="37" target-width="47.299988" target-x="528.5" target-y="231.5"></path><g node-id="468"><path d="M 636.90 416.80 L 636.20 416.50 L 635.90 415.80 L 635.90 391.10 L 635.50 389.00 L 634.80 387.40 L 633.80 386.30 L 631.50 385.30 L 602.00 385.40 L 601.30 385.20 L 601.00 384.40 L 601.30 383.70 L 602.00 383.40 L 630.80 383.20 L 633.70 383.90 L 635.10 384.80 L 636.40 386.30 L 637.30 388.20 L 637.90 390.80 L 637.90 415.80 L 637.60 416.50 L 636.90 416.80 Z" fill="#232323" fill-rule="nonzero" group-id="4" node-id="314" stroke="none" target-height="33.599976" target-width="36.900024" target-x="601" target-y="383.2"></path><path d="M 463.90 403.20 L 644.30 403.20 L 644.30 499.10 L 463.90 499.10 Z" fill="#fdd740" fill-rule="nonzero" group-id="4" node-id="316" stroke="none" target-height="95.899994" target-width="180.4" target-x="463.9" target-y="403.2"></path><path d="M 463.90 415.80 L 644.30 415.80 L 644.30 499.10 L 463.90 499.10 Z" fill="#26205c" fill-rule="nonzero" group-id="4" node-id="318" stroke="none" target-height="83.30002" target-width="180.4" target-x="463.9" target-y="415.8"></path><path d="M 478.30 441.10 L 628.20 441.10 L 628.20 659.00 L 478.30 659.00 Z" fill="#fdd740" fill-rule="nonzero" group-id="4" node-id="320" stroke="none" target-height="217.9" target-width="149.90002" target-x="478.3" target-y="441.1"></path><path d="M 503.50 489.20 L 502.80 488.90 L 502.50 488.20 L 502.50 472.50 L 502.80 471.80 L 503.50 471.50 L 504.20 471.80 L 504.50 472.50 L 504.50 488.20 L 504.20 488.90 L 503.50 489.20 Z" fill="#232323" fill-rule="nonzero" group-id="4" node-id="322" stroke="none" target-height="17.700012" target-width="2" target-x="502.5" target-y="471.5"></path><path d="M 503.50 640.00 L 502.80 639.70 L 502.50 639.00 L 502.50 495.10 L 502.80 494.40 L 503.50 494.10 L 504.20 494.40 L 504.50 495.10 L 504.50 639.00 L 504.20 639.70 L 503.50 640.00 Z" fill="#232323" fill-rule="nonzero" group-id="4" node-id="324" stroke="none" target-height="145.9" target-width="2" target-x="502.5" target-y="494.1"></path><path d="M 528.80 640.00 L 528.10 639.70 L 527.80 639.00 L 527.80 472.50 L 528.10 471.80 L 528.80 471.50 L 529.50 471.80 L 529.80 472.50 L 529.80 639.00 L 529.50 639.70 L 528.80 640.00 Z" fill="#232323" fill-rule="nonzero" group-id="4" node-id="326" stroke="none" target-height="168.5" target-width="2" target-x="527.8" target-y="471.5"></path><path d="M 554.10 500.10 L 553.40 499.80 L 553.10 499.10 L 553.10 472.50 L 553.40 471.80 L 554.10 471.50 L 554.80 471.80 L 555.10 472.50 L 555.10 499.10 L 554.80 499.80 L 554.10 500.10 Z" fill="#232323" fill-rule="nonzero" group-id="4" node-id="328" stroke="none" target-height="28.600006" target-width="2" target-x="553.1" target-y="471.5"></path><path d="M 554.10 640.00 L 553.40 639.70 L 553.10 639.00 L 553.10 509.10 L 553.40 508.40 L 554.10 508.10 L 554.80 508.40 L 555.10 509.10 L 555.10 639.00 L 554.80 639.70 L 554.10 640.00 Z" fill="#232323" fill-rule="nonzero" group-id="4" node-id="330" stroke="none" target-height="131.9" target-width="2" target-x="553.1" target-y="508.1"></path><path d="M 579.40 574.60 L 578.70 574.30 L 578.40 573.60 L 578.40 472.50 L 578.70 471.80 L 579.40 471.50 L 580.10 471.80 L 580.40 472.50 L 580.40 573.60 L 580.10 574.30 L 579.40 574.60 Z" fill="#232323" fill-rule="nonzero" group-id="4" node-id="332" stroke="none" target-height="103.099976" target-width="2" target-x="578.4" target-y="471.5"></path><path d="M 579.40 640.00 L 578.70 639.70 L 578.40 639.00 L 578.40 591.00 L 578.70 590.30 L 579.40 590.00 L 580.10 590.30 L 580.40 591.00 L 580.40 639.00 L 580.10 639.70 L 579.40 640.00 Z" fill="#232323" fill-rule="nonzero" group-id="4" node-id="334" stroke="none" target-height="50" target-width="2" target-x="578.4" target-y="590"></path><path d="M 604.70 622.50 L 603.90 622.20 L 603.70 621.50 L 603.70 472.50 L 603.90 471.80 L 604.70 471.50 L 605.40 471.80 L 605.70 472.50 L 605.70 621.50 L 605.40 622.20 L 604.70 622.50 Z" fill="#232323" fill-rule="nonzero" group-id="4" node-id="336" stroke="none" target-height="151" target-width="2" target-x="603.7" target-y="471.5"></path><path d="M 604.70 640.00 L 603.90 639.70 L 603.70 639.00 L 603.70 626.80 L 603.90 626.10 L 604.70 625.80 L 605.40 626.10 L 605.70 626.80 L 605.70 639.00 L 605.40 639.70 L 604.70 640.00 Z" fill="#232323" fill-rule="nonzero" group-id="4" node-id="338" stroke="none" target-height="14.200012" target-width="2" target-x="603.7" target-y="625.8"></path><path d="M 605.20 394.50 L 583.20 394.50 L 581.90 394.20 L 580.80 393.50 L 580.10 392.40 L 579.80 391.10 L 579.80 378.60 L 580.10 377.30 L 580.80 376.30 L 581.90 375.60 L 583.20 375.30 L 605.20 375.30 L 606.50 375.60 L 607.60 376.30 L 608.30 377.30 L 608.60 378.60 L 608.60 391.10 L 608.30 392.40 L 607.60 393.50 L 606.50 394.20 L 605.20 394.50 Z" fill="#fdd740" fill-rule="nonzero" group-id="4" node-id="340" stroke="none" target-height="19.200012" target-width="28.799988" target-x="579.8" target-y="375.3"></path></g><path d="M 360.10 558.60 L 338.70 573.90 L 336.60 574.70 L 334.40 574.30 L 332.60 572.80 L 304.80 533.60 L 304.00 531.50 L 304.40 529.30 L 304.90 528.40 L 327.20 512.30 L 329.40 511.50 L 331.60 511.90 L 333.30 513.40 L 361.20 552.60 L 361.70 553.60 L 361.90 555.80 L 361.00 557.80 L 360.10 558.60 Z" fill="#5a78ec" fill-rule="nonzero" node-id="343" stroke="none" target-height="63.200012" target-width="57.899994" target-x="304" target-y="511.5"></path><path d="M 330.90 531.00 L 330.70 532.80 L 330.00 534.30 L 328.90 535.80 L 327.50 536.90 L 325.90 537.50 L 324.10 537.80 L 322.40 537.50 L 320.80 536.90 L 319.40 535.80 L 318.30 534.30 L 317.60 532.80 L 317.40 531.00 L 317.60 529.20 L 318.30 527.60 L 319.40 526.20 L 320.80 525.10 L 322.40 524.50 L 324.10 524.20 L 325.90 524.50 L 327.50 525.10 L 328.90 526.20 L 330.00 527.60 L 330.70 529.20 L 330.90 531.00 Z" fill="none" node-id="345" stroke="#ffffff" stroke-linecap="butt" stroke-width="4" target-height="13.599976" target-width="13.5" target-x="317.4" target-y="524.2"></path><path d="M 348.60 555.60 L 348.40 557.30 L 347.70 558.90 L 346.60 560.40 L 345.20 561.40 L 343.60 562.10 L 341.80 562.30 L 340.00 562.10 L 338.50 561.40 L 337.00 560.40 L 336.00 558.90 L 335.30 557.30 L 335.10 555.60 L 335.30 553.80 L 336.00 552.20 L 337.00 550.80 L 338.50 549.70 L 340.00 549.00 L 341.80 548.80 L 343.60 549.00 L 345.20 549.70 L 346.60 550.80 L 347.70 552.20 L 348.40 553.80 L 348.60 555.60 Z" fill="none" node-id="347" stroke="#ffffff" stroke-linecap="butt" stroke-width="4" target-height="13.5" target-width="13.5" target-x="335.1" target-y="548.8"></path><path d="M 340.90 543.20 L 330.50 550.60 L 329.30 551.10 L 328.10 551.20 L 327.00 550.70 L 326.10 549.90 L 324.00 546.50 L 324.00 545.30 L 324.40 544.20 L 325.20 543.30 L 335.60 535.90 L 336.80 535.40 L 338.00 535.30 L 339.10 535.80 L 340.00 536.60 L 342.10 540.00 L 342.10 541.20 L 341.70 542.30 L 340.90 543.20 Z" fill="#ffffff" fill-rule="nonzero" node-id="349" stroke="none" target-height="15.900024" target-width="18.100006" target-x="324" target-y="535.3"></path><path d="M 312.50 508.40 L 312.30 509.90 L 310.90 512.40 L 308.50 513.80 L 307.00 514.00 L 304.20 513.20 L 302.20 511.20 L 301.60 509.90 L 301.40 508.40 L 302.20 505.60 L 304.20 503.60 L 307.00 502.90 L 308.50 503.10 L 310.90 504.50 L 312.30 506.90 L 312.50 508.40 Z" fill="#5a78ec" fill-rule="nonzero" node-id="351" stroke="none" target-height="11.100006" target-width="11.100006" target-x="301.4" target-y="502.9"></path><path d="M 286.20 512.60 L 285.00 512.40 L 284.00 511.70 L 283.40 510.70 L 283.20 509.60 L 283.50 508.40 L 287.00 502.30 L 291.40 497.00 L 296.80 492.50 L 299.70 490.60 L 306.10 487.60 L 312.80 485.90 L 316.30 485.40 L 317.50 485.50 L 318.50 486.10 L 319.20 487.00 L 319.50 488.10 L 319.40 489.30 L 318.80 490.30 L 317.90 491.00 L 316.80 491.40 L 312.40 492.00 L 308.10 493.30 L 304.00 495.10 L 300.20 497.40 L 296.80 500.20 L 293.70 503.40 L 291.10 507.00 L 288.50 511.60 L 287.80 512.20 L 286.20 512.60 Z" fill="#5a78ec" fill-rule="nonzero" node-id="353" stroke="none" target-height="27.199982" target-width="36.299988" target-x="283.2" target-y="485.4"></path><path d="M 272.50 505.00 L 271.40 504.80 L 270.40 504.20 L 269.70 503.20 L 269.50 502.10 L 269.70 500.90 L 271.70 496.50 L 274.10 492.50 L 276.90 488.70 L 280.10 485.20 L 283.60 482.00 L 287.50 479.20 L 291.60 476.80 L 295.90 474.90 L 300.40 473.40 L 305.00 472.30 L 309.70 471.80 L 314.50 471.70 L 315.70 472.00 L 316.60 472.70 L 317.20 473.60 L 317.40 474.80 L 317.10 476.00 L 316.40 476.90 L 315.50 477.50 L 314.30 477.70 L 310.10 477.80 L 306.00 478.30 L 302.00 479.20 L 298.10 480.50 L 294.40 482.10 L 290.80 484.20 L 287.40 486.70 L 284.30 489.50 L 281.50 492.50 L 279.10 495.80 L 277.00 499.30 L 274.80 503.90 L 273.40 504.90 L 272.50 505.00 Z" fill="#5a78ec" fill-rule="nonzero" node-id="355" stroke="none" target-height="33.299988" target-width="47.899994" target-x="269.5" target-y="471.7"></path><path d="M 256.60 503.70 L 254.60 503.00 L 253.90 502.10 L 253.60 501.00 L 253.70 499.80 L 255.70 494.60 L 258.00 489.60 L 260.80 484.90 L 264.00 480.40 L 267.60 476.20 L 271.50 472.30 L 275.70 468.80 L 280.30 465.60 L 285.20 462.80 L 290.20 460.60 L 295.40 458.70 L 300.70 457.30 L 306.20 456.40 L 311.60 456.00 L 317.10 456.00 L 322.70 456.60 L 323.80 457.00 L 324.70 457.70 L 325.20 458.80 L 325.30 460.00 L 324.80 461.10 L 324.10 461.90 L 323.10 462.40 L 321.90 462.50 L 316.80 462.00 L 311.80 462.00 L 306.90 462.40 L 302.00 463.20 L 297.10 464.50 L 292.40 466.10 L 287.90 468.20 L 283.50 470.70 L 279.30 473.60 L 275.50 476.70 L 272.00 480.20 L 268.70 484.00 L 265.90 488.10 L 263.30 492.40 L 259.00 502.50 L 257.50 503.60 L 256.60 503.70 Z" fill="#5a78ec" fill-rule="nonzero" node-id="357" stroke="none" target-height="47.700012" target-width="71.69998" target-x="253.6" target-y="456"></path><path d="M 790.00 253.60 L 789.70 258.60 L 789.00 263.40 L 787.80 267.90 L 786.20 272.30 L 784.20 276.50 L 781.80 280.40 L 779.00 284.10 L 775.90 287.50 L 772.50 290.60 L 768.90 293.30 L 764.90 295.70 L 760.70 297.70 L 756.30 299.40 L 751.80 300.50 L 747.10 301.20 L 742.10 301.50 L 737.10 301.20 L 732.40 300.50 L 727.80 299.40 L 723.50 297.70 L 719.20 295.70 L 715.30 293.30 L 711.70 290.60 L 708.20 287.50 L 705.10 284.10 L 702.40 280.40 L 700.00 276.50 L 698.00 272.30 L 696.40 267.90 L 695.20 263.40 L 694.50 258.60 L 694.20 253.60 L 694.50 248.70 L 695.20 243.90 L 696.40 239.40 L 698.00 235.00 L 700.00 230.80 L 702.40 226.90 L 705.10 223.20 L 708.20 219.80 L 711.70 216.70 L 715.30 214.00 L 719.20 211.60 L 723.50 209.50 L 727.80 207.90 L 732.40 206.80 L 737.10 206.00 L 742.10 205.80 L 747.10 206.00 L 751.80 206.80 L 756.30 207.90 L 760.70 209.50 L 764.90 211.60 L 768.90 214.00 L 772.50 216.70 L 775.90 219.80 L 779.00 223.20 L 781.80 226.90 L 784.20 230.80 L 786.20 235.00 L 787.80 239.40 L 789.00 243.90 L 789.70 248.70 L 790.00 253.60 Z" fill="#5a78ec" fill-rule="nonzero" node-id="359" stroke="none" target-height="95.7" target-width="95.79999" target-x="694.2" target-y="205.8"></path><path d="M 742.10 255.60 L 740.70 255.10 L 740.30 254.40 L 740.20 252.90 L 740.60 252.30 L 767.10 224.40 L 768.50 223.80 L 769.90 224.30 L 770.40 225.00 L 770.40 226.50 L 770.00 227.20 L 743.50 255.00 L 742.10 255.60 Z" fill="#ffffff" fill-rule="nonzero" node-id="361" stroke="none" target-height="31.800003" target-width="30.200012" target-x="740.2" target-y="223.8"></path><path d="M 742.10 255.80 L 714.50 248.60 L 713.80 248.30 L 713.10 247.00 L 713.50 245.50 L 714.80 244.70 L 742.60 251.90 L 743.80 252.80 L 744.00 254.30 L 743.30 255.40 L 742.10 255.80 Z" fill="#ffffff" fill-rule="nonzero" node-id="363" stroke="none" target-height="11.100006" target-width="30.900024" target-x="713.1" target-y="244.7"></path><path d="M 798.30 571.50 L 704.70 571.80 L 702.00 571.50 L 699.50 570.80 L 697.30 569.80 L 695.20 568.30 L 693.40 566.50 L 692.00 564.50 L 690.90 562.20 L 690.20 559.70 L 689.90 557.10 L 689.70 493.80 L 690.00 491.20 L 690.60 488.70 L 691.70 486.40 L 693.20 484.30 L 694.90 482.60 L 697.00 481.10 L 699.30 480.00 L 701.70 479.30 L 704.40 479.10 L 798.00 478.80 L 800.70 479.00 L 803.10 479.70 L 805.40 480.80 L 807.50 482.30 L 809.20 484.00 L 810.70 486.10 L 811.80 488.40 L 812.50 490.80 L 812.80 493.50 L 812.90 556.70 L 812.70 559.40 L 812.00 561.90 L 810.90 564.10 L 809.50 566.20 L 807.70 568.00 L 805.70 569.40 L 803.40 570.50 L 800.90 571.20 L 798.30 571.50 Z" fill="#5a78ec" fill-rule="nonzero" node-id="365" stroke="none" target-height="93" target-width="123.20001" target-x="689.7" target-y="478.8"></path><g node-id="469"><path d="M 875.50 500.00 L 796.10 500.30 L 793.50 500.00 L 791.00 499.30 L 788.70 498.30 L 786.60 496.80 L 784.90 495.00 L 783.40 493.00 L 782.30 490.70 L 781.60 488.20 L 781.40 485.60 L 781.20 433.10 L 781.50 430.40 L 782.10 427.90 L 783.20 425.60 L 784.70 423.60 L 786.40 421.80 L 788.50 420.30 L 790.80 419.20 L 793.20 418.50 L 795.90 418.30 L 875.30 418.10 L 877.90 418.30 L 880.40 419.00 L 882.70 420.10 L 884.80 421.50 L 886.50 423.30 L 888.00 425.30 L 889.10 427.60 L 889.80 430.10 L 890.00 432.70 L 890.20 485.30 L 889.90 487.90 L 889.30 490.40 L 888.20 492.70 L 886.70 494.80 L 885.00 496.50 L 882.90 498.00 L 880.60 499.10 L 878.20 499.80 L 875.50 500.00 Z" fill="#5a78eb" fill-opacity="0.64" fill-rule="nonzero" group-id="5" node-id="369" stroke="none" target-height="82.19998" target-width="109" target-x="781.2" target-y="418.1"></path></g><path d="M 719.70 499.90 L 718.90 502.80 L 718.00 504.00 L 716.80 504.90 L 713.90 505.70 L 712.40 505.50 L 711.10 504.90 L 709.80 504.00 L 708.90 502.80 L 708.20 499.90 L 708.40 498.40 L 709.80 495.80 L 712.40 494.30 L 713.90 494.10 L 715.40 494.30 L 718.00 495.80 L 718.90 497.00 L 719.70 499.90 Z" fill="#ffffff" fill-rule="nonzero" node-id="372" stroke="none" target-height="11.600006" target-width="11.5" target-x="708.2" target-y="494.1"></path><path d="M 752.90 500.30 L 752.60 501.80 L 751.80 503.00 L 750.60 503.90 L 749.10 504.20 L 747.60 503.90 L 746.30 503.00 L 745.50 501.80 L 745.20 500.30 L 745.50 498.80 L 746.30 497.60 L 747.60 496.70 L 749.10 496.40 L 750.60 496.70 L 751.80 497.60 L 752.60 498.80 L 752.90 500.30 Z" fill="#ffffff" fill-rule="nonzero" node-id="374" stroke="none" target-height="7.8000183" target-width="7.700012" target-x="745.2" target-y="496.4"></path><path d="M 727.10 525.70 L 726.60 525.40 L 716.70 508.90 L 716.90 508.30 L 717.60 508.40 L 727.50 524.90 L 727.50 525.30 L 727.10 525.70 Z" fill="#ffffff" fill-rule="nonzero" node-id="376" stroke="none" target-height="17.400024" target-width="10.799988" target-x="716.7" target-y="508.3"></path><path d="M 743.30 523.90 L 742.80 523.70 L 742.80 523.30 L 748.80 506.60 L 749.20 506.60 L 749.50 507.20 L 743.80 523.60 L 743.30 523.90 Z" fill="#ffffff" fill-rule="nonzero" node-id="378" stroke="none" target-height="17.300018" target-width="6.700012" target-x="742.8" target-y="506.6"></path><path d="M 748.00 537.30 L 747.30 541.50 L 746.40 543.40 L 743.80 546.50 L 740.20 548.60 L 735.90 549.40 L 731.70 548.60 L 728.10 546.50 L 725.50 543.40 L 724.60 541.50 L 723.90 537.30 L 724.60 533.10 L 726.70 529.50 L 729.80 526.90 L 731.70 526.00 L 735.90 525.20 L 740.20 526.00 L 743.80 528.10 L 746.40 531.20 L 747.30 533.10 L 748.00 537.30 Z" fill="none" node-id="380" stroke="#ffffff" stroke-linecap="round" stroke-width="4" target-height="24.200012" target-width="24.099976" target-x="723.9" target-y="525.2"></path><path d="M 632.10 215.40 L 632.00 218.30 L 630.50 223.80 L 627.70 228.70 L 625.80 230.90 L 623.60 232.80 L 618.70 235.60 L 613.20 237.10 L 610.30 237.30 L 607.40 237.10 L 602.00 235.60 L 597.10 232.80 L 594.90 230.90 L 591.40 226.30 L 589.30 221.10 L 588.70 218.30 L 588.50 215.40 L 589.30 209.80 L 591.40 204.50 L 594.90 200.00 L 597.10 198.10 L 602.00 195.30 L 607.40 193.80 L 610.30 193.60 L 613.20 193.80 L 618.70 195.30 L 623.60 198.10 L 625.80 200.00 L 627.70 202.20 L 630.50 207.10 L 632.00 212.60 L 632.10 215.40 Z" fill="none" node-id="382" stroke="#fa6464" stroke-linecap="butt" stroke-width="2" target-height="43.699997" target-width="43.599976" target-x="588.5" target-y="193.6"></path><g node-id="470"><path d="M 660.50 281.60 L 660.30 283.20 L 659.10 286.00 L 656.90 288.30 L 654.00 289.50 L 650.80 289.50 L 647.90 288.30 L 645.70 286.00 L 644.50 283.20 L 644.50 280.00 L 645.70 277.10 L 647.90 274.80 L 650.80 273.60 L 654.00 273.60 L 656.90 274.80 L 658.10 275.90 L 659.90 278.50 L 660.50 281.60 Z" fill="#5a78eb" fill-opacity="0.64" fill-rule="nonzero" group-id="6" node-id="386" stroke="none" target-height="15.899994" target-width="16" target-x="644.5" target-y="273.6"></path></g><path d="M 856.00 307.80 L 827.40 307.80 L 825.60 307.60 L 823.90 306.80 L 822.50 305.70 L 821.40 304.30 L 820.70 302.70 L 820.40 300.80 L 820.70 298.90 L 821.40 297.20 L 822.50 295.80 L 823.90 294.70 L 825.60 294.00 L 827.40 293.80 L 856.00 293.80 L 857.90 294.00 L 859.50 294.70 L 861.00 295.80 L 862.10 297.20 L 862.80 298.90 L 863.00 300.80 L 862.80 302.70 L 862.10 304.30 L 861.00 305.70 L 859.50 306.80 L 857.90 307.60 L 856.00 307.80 Z" fill="none" node-id="389" stroke="#fa6464" stroke-linecap="butt" stroke-width="2" target-height="14" target-width="42.599976" target-x="820.4" target-y="293.8"></path><path d="M 90.00 683.80 L 934.90 683.80 L 934.90 697.70 L 90.00 697.70 Z" fill="#26205c" fill-rule="nonzero" node-id="391" stroke="none" target-height="13.900024" target-width="844.9" target-x="90" target-y="683.8"></path><path d="M 225.10 523.40 L 154.50 523.40 L 153.20 523.20 L 152.20 522.50 L 151.50 521.50 L 151.30 520.20 L 151.50 518.90 L 152.20 517.90 L 153.20 517.20 L 154.50 516.90 L 225.10 516.90 L 226.40 517.20 L 227.40 517.90 L 228.10 518.90 L 228.40 520.20 L 228.10 521.50 L 227.40 522.50 L 226.40 523.20 L 225.10 523.40 Z" fill="none" node-id="393" stroke="#fa6464" stroke-linecap="butt" stroke-width="2" target-height="6.5" target-width="77.09999" target-x="151.3" target-y="516.9"></path><path d="M 241.70 543.20 L 209.80 543.20 L 208.70 543.00 L 207.70 542.40 L 207.10 541.40 L 206.90 540.30 L 207.10 539.10 L 207.70 538.20 L 208.70 537.50 L 209.80 537.30 L 241.70 537.30 L 242.80 537.50 L 243.80 538.20 L 244.40 539.10 L 244.60 540.30 L 244.40 541.40 L 243.80 542.40 L 242.80 543.00 L 241.70 543.20 Z" fill="none" node-id="395" stroke="#fa6464" stroke-linecap="butt" stroke-width="2" target-height="5.9000244" target-width="37.700012" target-x="206.9" target-y="537.3"></path><g node-id="471"><g node-id="481"><path d="M 851.80 448.60 L 699.90 448.60 L 697.10 448.40 L 694.50 447.70 L 692.10 446.50 L 690.00 445.00 L 688.10 443.20 L 686.60 441.00 L 685.50 438.60 L 684.80 436.10 L 684.50 433.30 L 684.50 344.30 L 684.80 341.50 L 685.50 338.90 L 686.60 336.60 L 688.10 334.40 L 690.00 332.60 L 692.10 331.10 L 694.50 329.90 L 697.10 329.20 L 699.90 328.90 L 851.80 328.90 L 854.60 329.20 L 857.20 329.90 L 859.50 331.10 L 861.70 332.60 L 863.50 334.40 L 865.10 336.60 L 866.20 338.90 L 866.90 341.50 L 867.20 344.30 L 867.20 433.30 L 866.90 436.10 L 866.20 438.60 L 865.10 441.00 L 863.50 443.20 L 861.70 445.00 L 859.50 446.50 L 857.20 447.70 L 854.60 448.40 L 851.80 448.60 Z" fill="#5a78eb" fill-opacity="0.64" fill-rule="nonzero" group-id="7,17" node-id="401" stroke="none" target-height="119.70001" target-width="182.70001" target-x="684.5" target-y="328.9"></path></g><g node-id="482"><g node-id="484"><g node-id="485"><path d="M 846.10 443.50 L 695.90 443.50 L 693.30 443.20 L 690.90 442.60 L 688.70 441.50 L 686.70 440.10 L 685.00 438.40 L 683.60 436.40 L 682.50 434.20 L 681.90 431.80 L 681.60 429.20 L 681.60 339.20 L 681.90 336.60 L 682.50 334.20 L 683.60 332.00 L 685.00 330.00 L 686.70 328.30 L 688.70 326.90 L 690.90 325.80 L 693.30 325.20 L 695.90 324.90 L 846.10 324.90 L 848.70 325.20 L 851.00 325.80 L 853.30 326.90 L 855.30 328.30 L 857.00 330.00 L 858.40 332.00 L 859.40 334.20 L 860.10 336.60 L 860.30 339.20 L 860.30 429.20 L 860.10 431.80 L 859.40 434.20 L 858.40 436.40 L 857.00 438.40 L 855.30 440.10 L 853.30 441.50 L 851.00 442.60 L 848.70 443.20 L 846.10 443.50 Z" fill="#ffffff" fill-rule="nonzero" group-id="7,18,20,21" node-id="409" stroke="none" target-height="118.600006" target-width="178.70001" target-x="681.6" target-y="324.9"></path></g><g clip-path="url(#XMLID_4_)" group-id="7,18,20,22" node-id="412"><path d="M 649.40 308.40 L 869.00 308.40 L 869.00 345.90 L 649.40 345.90 Z" fill="#e0e6f8" fill-rule="nonzero" group-id="7,18,20,22" node-id="414" stroke="none" target-height="37.5" target-width="219.59998" target-x="649.4" target-y="308.4"></path></g></g><path d="M 819.80 335.80 L 819.50 337.20 L 818.80 338.30 L 817.70 339.00 L 816.30 339.30 L 814.90 339.00 L 813.80 338.30 L 813.10 337.20 L 812.80 335.80 L 813.10 334.50 L 813.80 333.40 L 814.90 332.60 L 816.30 332.40 L 817.70 332.60 L 818.80 333.40 L 819.50 334.50 L 819.80 335.80 Z" fill="#f06361" fill-rule="nonzero" group-id="7,18" node-id="418" stroke="none" target-height="6.899994" target-width="7" target-x="812.8" target-y="332.4"></path><path d="M 833.70 335.80 L 833.50 337.20 L 832.70 338.30 L 831.60 339.00 L 830.30 339.30 L 828.90 339.00 L 827.80 338.30 L 827.00 337.20 L 826.80 335.80 L 827.00 334.50 L 827.80 333.40 L 828.90 332.60 L 830.30 332.40 L 831.60 332.60 L 832.70 333.40 L 833.50 334.50 L 833.70 335.80 Z" fill="#f8bb3f" fill-rule="nonzero" group-id="7,18" node-id="420" stroke="none" target-height="6.899994" target-width="6.9000244" target-x="826.8" target-y="332.4"></path><path d="M 847.70 335.80 L 847.40 337.20 L 846.70 338.30 L 845.60 339.00 L 844.20 339.30 L 842.80 339.00 L 841.70 338.30 L 841.00 337.20 L 840.70 335.80 L 841.00 334.50 L 841.70 333.40 L 842.80 332.60 L 844.20 332.40 L 845.60 332.60 L 846.70 333.40 L 847.40 334.50 L 847.70 335.80 Z" fill="#2fc843" fill-rule="nonzero" group-id="7,18" node-id="422" stroke="none" target-height="6.899994" target-width="7" target-x="840.7" target-y="332.4"></path><path d="M 771.40 354.60 L 768.20 361.90 L 766.50 365.10 L 761.70 372.30 L 758.60 375.80 L 756.40 377.90 L 751.40 381.40 L 748.70 382.70 L 745.80 383.70 L 742.70 384.20 L 763.60 384.20 L 763.60 430.40 L 779.30 430.40 L 779.30 384.20 L 800.20 384.20 L 797.10 383.70 L 794.10 382.70 L 791.40 381.40 L 786.40 377.90 L 784.20 375.80 L 781.20 372.30 L 776.40 365.10 L 774.60 361.90 L 771.40 354.60 Z" fill="#fa6464" fill-rule="nonzero" group-id="7,18" node-id="424" stroke="none" target-height="75.79999" target-width="57.5" target-x="742.7" target-y="354.6"></path><path d="M 740.90 359.40 L 692.10 359.40 L 691.60 358.90 L 691.80 358.60 L 740.90 358.40 L 741.40 358.90 L 740.90 359.40 Z" fill="#232323" fill-rule="nonzero" group-id="7,18" node-id="426" stroke="none" target-height="1" target-width="49.80005" target-x="691.6" target-y="358.4"></path><path d="M 706.10 364.00 L 692.10 364.00 L 691.60 363.50 L 692.10 363.00 L 706.10 363.00 L 706.60 363.50 L 706.10 364.00 Z" fill="#232323" fill-rule="nonzero" group-id="7,18" node-id="428" stroke="none" target-height="1" target-width="15" target-x="691.6" target-y="363"></path><path d="M 740.90 364.00 L 710.40 364.00 L 709.90 363.50 L 710.40 363.00 L 740.90 363.00 L 741.40 363.50 L 740.90 364.00 Z" fill="#232323" fill-rule="nonzero" group-id="7,18" node-id="430" stroke="none" target-height="1" target-width="31.5" target-x="709.9" target-y="363"></path><path d="M 714.80 368.60 L 692.10 368.60 L 691.60 368.10 L 691.80 367.70 L 714.80 367.60 L 715.30 368.10 L 714.80 368.60 Z" fill="#232323" fill-rule="nonzero" group-id="7,18" node-id="432" stroke="none" target-height="1" target-width="23.700012" target-x="691.6" target-y="367.6"></path><path d="M 723.50 373.20 L 692.10 373.20 L 691.80 373.00 L 691.80 372.30 L 723.50 372.20 L 724.00 372.70 L 723.50 373.20 Z" fill="#232323" fill-rule="nonzero" group-id="7,18" node-id="434" stroke="none" target-height="1" target-width="32.200012" target-x="691.8" target-y="372.2"></path><path d="M 697.30 377.70 L 692.10 377.70 L 691.60 377.20 L 692.10 376.70 L 697.30 376.70 L 697.80 377.20 L 697.30 377.70 Z" fill="#232323" fill-rule="nonzero" group-id="7,18" node-id="436" stroke="none" target-height="1" target-width="6.200012" target-x="691.6" target-y="376.7"></path><path d="M 729.60 368.60 L 719.10 368.60 L 718.60 368.10 L 718.80 367.70 L 729.60 367.60 L 730.10 368.10 L 729.60 368.60 Z" fill="#232323" fill-rule="nonzero" group-id="7,18" node-id="438" stroke="none" target-height="1" target-width="11.5" target-x="718.6" target-y="367.6"></path><path d="M 753.10 373.20 L 727.80 373.20 L 727.30 372.70 L 727.80 372.20 L 753.10 372.20 L 753.60 372.70 L 753.10 373.20 Z" fill="#232323" fill-rule="nonzero" group-id="7,18" node-id="440" stroke="none" target-height="1" target-width="26.299988" target-x="727.3" target-y="372.2"></path><path d="M 731.30 377.70 L 699.90 377.70 L 699.40 377.20 L 699.90 376.70 L 731.30 376.70 L 731.80 377.20 L 731.30 377.70 Z" fill="#232323" fill-rule="nonzero" group-id="7,18" node-id="442" stroke="none" target-height="1" target-width="32.399963" target-x="699.4" target-y="376.7"></path><path d="M 829.90 414.70 L 829.60 415.80 L 828.30 417.20 L 827.20 417.40 L 826.20 417.20 L 824.80 415.80 L 824.60 414.70 L 824.80 413.70 L 826.20 412.30 L 827.20 412.10 L 828.30 412.30 L 829.60 413.70 L 829.90 414.70 Z" fill="#5a78eb" fill-rule="nonzero" group-id="7,18" node-id="444" stroke="none" target-height="5.299988" target-width="5.300049" target-x="824.6" target-y="412.1"></path><path d="M 840.10 414.70 L 839.90 415.80 L 838.50 417.20 L 837.50 417.40 L 836.40 417.20 L 835.00 415.80 L 834.80 414.70 L 835.00 413.70 L 836.40 412.30 L 837.50 412.10 L 838.50 412.30 L 839.90 413.70 L 840.10 414.70 Z" fill="#5a78eb" fill-rule="nonzero" group-id="7,18" node-id="446" stroke="none" target-height="5.299988" target-width="5.299988" target-x="834.8" target-y="412.1"></path><path d="M 850.30 414.70 L 850.10 415.80 L 849.50 416.60 L 847.70 417.40 L 846.70 417.20 L 845.80 416.60 L 845.30 415.80 L 845.10 414.70 L 845.80 412.90 L 846.70 412.30 L 847.70 412.10 L 848.70 412.30 L 849.50 412.90 L 850.30 414.70 Z" fill="#5a78eb" fill-rule="nonzero" group-id="7,18" node-id="448" stroke="none" target-height="5.299988" target-width="5.200012" target-x="845.1" target-y="412.1"></path><path d="M 829.90 424.10 L 829.60 425.10 L 828.30 426.50 L 827.20 426.70 L 826.20 426.50 L 824.80 425.10 L 824.60 424.10 L 824.80 423.10 L 826.20 421.70 L 827.20 421.50 L 828.30 421.70 L 829.60 423.10 L 829.90 424.10 Z" fill="#5a78eb" fill-rule="nonzero" group-id="7,18" node-id="450" stroke="none" target-height="5.200012" target-width="5.300049" target-x="824.6" target-y="421.5"></path><path d="M 840.10 424.10 L 839.90 425.10 L 838.50 426.50 L 837.50 426.70 L 836.40 426.50 L 835.00 425.10 L 834.80 424.10 L 835.00 423.10 L 836.40 421.70 L 837.50 421.50 L 838.50 421.70 L 839.90 423.10 L 840.10 424.10 Z" fill="#5a78eb" fill-rule="nonzero" group-id="7,18" node-id="452" stroke="none" target-height="5.200012" target-width="5.299988" target-x="834.8" target-y="421.5"></path><path d="M 850.30 424.10 L 850.10 425.10 L 848.70 426.50 L 847.70 426.70 L 846.70 426.50 L 845.30 425.10 L 845.30 423.10 L 846.70 421.70 L 847.70 421.50 L 848.70 421.70 L 850.10 423.10 L 850.30 424.10 Z" fill="#5a78eb" fill-rule="nonzero" group-id="7,18" node-id="454" stroke="none" target-height="5.200012" target-width="5" target-x="845.3" target-y="421.5"></path><path d="M 829.90 433.40 L 829.60 434.50 L 829.10 435.30 L 828.30 435.90 L 827.20 436.10 L 826.20 435.90 L 824.80 434.50 L 824.60 433.40 L 824.80 432.40 L 826.20 431.00 L 827.20 430.80 L 828.30 431.00 L 829.60 432.40 L 829.90 433.40 Z" fill="#5a78eb" fill-rule="nonzero" group-id="7,18" node-id="456" stroke="none" target-height="5.3000183" target-width="5.300049" target-x="824.6" target-y="430.8"></path><path d="M 840.10 433.40 L 839.30 435.30 L 837.50 436.10 L 835.60 435.30 L 835.00 434.50 L 834.80 433.40 L 835.00 432.40 L 835.60 431.60 L 836.40 431.00 L 837.50 430.80 L 838.50 431.00 L 839.30 431.60 L 839.90 432.40 L 840.10 433.40 Z" fill="#5a78eb" fill-rule="nonzero" group-id="7,18" node-id="458" stroke="none" target-height="5.3000183" target-width="5.299988" target-x="834.8" target-y="430.8"></path><path d="M 850.30 433.40 L 849.50 435.30 L 848.70 435.90 L 847.70 436.10 L 845.80 435.30 L 845.30 434.50 L 845.10 433.40 L 845.30 432.40 L 845.80 431.60 L 846.70 431.00 L 847.70 430.80 L 848.70 431.00 L 849.50 431.60 L 850.10 432.40 L 850.30 433.40 Z" fill="#5a78eb" fill-rule="nonzero" group-id="7,18" node-id="460" stroke="none" target-height="5.3000183" target-width="5.200012" target-x="845.1" target-y="430.8"></path></g><path d="M 826.00 435.30 L 691.50 435.30 L 688.10 435.00 L 685.00 434.20 L 682.10 432.80 L 679.40 430.90 L 677.20 428.70 L 675.40 426.10 L 674.00 423.20 L 673.10 420.10 L 672.80 416.70 L 672.80 332.90 L 673.10 329.50 L 674.00 326.40 L 675.40 323.50 L 677.20 320.80 L 679.40 318.60 L 682.10 316.80 L 685.00 315.40 L 688.10 314.50 L 691.50 314.20 L 826.00 314.20 L 829.40 314.50 L 832.50 315.40 L 835.40 316.80 L 838.00 318.60 L 840.30 320.80 L 842.10 323.50 L 843.50 326.40 L 844.40 329.50 L 844.70 332.90 L 844.70 416.70 L 844.40 420.10 L 843.50 423.20 L 842.10 426.10 L 840.30 428.70 L 838.00 430.90 L 835.40 432.80 L 832.50 434.20 L 829.40 435.00 L 826.00 435.30 Z M 691.50 316.20 L 688.40 316.50 L 685.70 317.30 L 683.10 318.50 L 680.70 320.20 L 678.80 322.10 L 677.10 324.50 L 675.90 327.10 L 675.10 329.80 L 674.80 332.90 L 674.80 416.70 L 675.10 419.70 L 675.90 422.50 L 677.10 425.10 L 678.80 427.40 L 680.70 429.40 L 683.10 431.10 L 685.70 432.30 L 688.40 433.00 L 691.50 433.30 L 826.00 433.30 L 829.10 433.00 L 831.80 432.30 L 834.40 431.10 L 836.80 429.40 L 838.70 427.40 L 840.40 425.10 L 841.60 422.50 L 842.40 419.70 L 842.70 416.70 L 842.70 332.90 L 842.40 329.80 L 841.60 327.10 L 840.40 324.50 L 838.70 322.10 L 836.80 320.20 L 834.40 318.50 L 831.80 317.30 L 829.10 316.50 L 826.00 316.20 L 691.50 316.20 Z" fill="#232323" fill-rule="nonzero" group-id="7" node-id="463" stroke="none" target-height="121.099976" target-width="171.90002" target-x="672.8" target-y="314.2"></path></g></svg>